<svg xmlns="http://www.w3.org/2000/svg" width="11" height="15.64" viewBox="0 0 11 15.64">
  <path id="ico_블로그" d="M0,0H5.409A6.05,6.05,0,0,1,9.035.962a3.6,3.6,0,0,1,1.319,3.111v.182a3.438,3.438,0,0,1-.589,1.965A3.283,3.283,0,0,1,7.941,7.476,4.153,4.153,0,0,1,10.23,8.7,3.519,3.519,0,0,1,11,11.1v.16a3.991,3.991,0,0,1-1.348,3.264A5.852,5.852,0,0,1,5.834,15.64H0ZM5.065,6.584a2.858,2.858,0,0,0,1.964-.546,2.224,2.224,0,0,0,.588-1.7V4.073a1.77,1.77,0,0,0-.628-1.509,3.249,3.249,0,0,0-1.965-.476H2.8v4.5Zm.384,6.948q2.8,0,2.8-2.39v-.181a2.23,2.23,0,0,0-.719-1.8,3.506,3.506,0,0,0-2.28-.607H2.8v4.983Z" fill="#aaa"/>
</svg>
