<?xml version="1.0" encoding="utf-8"?>
<!-- Generator: Adobe Illustrator 28.1.0, SVG Export Plug-In . SVG Version: 6.00 Build 0)  -->
<svg version="1.1" id="레이어_1" xmlns="http://www.w3.org/2000/svg" xmlns:xlink="http://www.w3.org/1999/xlink" x="0px"
	 y="0px" viewBox="0 0 818.9 77" style="enable-background:new 0 0 818.9 77;" xml:space="preserve">
<style type="text/css">
	.st0{fill:#FFFFFF;}
</style>
<path class="st0" d="M74.9,77.2V0.1c11,0,21.8,0,32.6,0c3,0,6,0.1,9,0.3c16.2,1,26.9,10.4,29.9,26.4c1.7,9.1,1.8,18.3-1,27.2
	c-3.9,12.4-12.4,19.9-25.2,22.1c-4.3,0.7-8.6,1-12.9,1C96.6,77.3,86,77.2,74.9,77.2z M99.6,57.3c9.3,1.9,17.3,0,20.4-4.9
	c3.9-6.1,3.8-22.4-0.6-27.9c-5.3-6.6-12.7-5-19.9-5.1V57.3z"/>
<path class="st0" d="M493.4-1.9c25.1,0,40.1,15.3,40,40.8c0,25.1-15.1,40.5-39.9,40.5c-25.1,0-40.2-15.2-40.3-40.6
	C453.2,13.4,468.2-1.9,493.4-1.9z M477.8,39.1c0.3,3.4,0.8,6.7,1.4,10c1.8,7.3,6.6,11,14,11c7.6,0,12.9-3.7,14-11.5
	c0.9-6.4,1-12.9,0.1-19.3c-1.1-8.3-6.1-12.1-13.9-12.2c-8.1-0.1-12.8,3.7-14.6,12.1C478.3,32.4,478.2,35.6,477.8,39.1L477.8,39.1z"
	/>
<path class="st0" d="M742.9,0.4v17.8h-36.5v10.5H737v17.5h-30.5v12.3h37.6V77h-62.3V0.4H742.9z"/>
<path class="st0" d="M756.9,0.3h60.7v17.9h-35.9v10.4h30.6v17.7h-30.7v12h37.4V77h-62.1L756.9,0.3z"/>
<path class="st0" d="M0,0.3h60.9v17.9H24.6v10.6h30.4v17.3H24.7v12.3h37.6V77H0V0.3z"/>
<path class="st0" d="M445.3,29H422c-1.4-7.3-5.2-11.8-13.1-11.9c-6.8,0-12.2,3-13.4,9.6c-1.2,7.2-1.4,14.5-0.5,21.7
	c1,7.8,6.7,11.8,13.9,11.8c6.9,0.1,10.8-3.2,13.3-11.1c0.1-0.5,0.4-0.9,0.6-1.4h22.3c0.5,13.4-8.1,25.4-21.4,29.5
	c-9.3,2.9-19.2,3.1-28.6,0.4c-15.2-4.2-23-15.2-25.9-30c-2-9.7-0.7-19.8,3.4-28.8c3.8-8.4,9.9-14.7,18.6-17.9
	c12-4.4,24.3-4.3,36.1,0.7C439,6.7,444.1,16.3,445.3,29z"/>
<path class="st0" d="M344.5,77.1h-23.4c-0.3-0.3-0.5-0.6-0.6-0.9c-3.1-9.1-3.1-9.1-12.7-9.1h-5.5c-8.6,0-8.5,0-11.8,7.7
	c-0.7,1.3-2,2.2-3.5,2.4c-6.8,0.2-14.2,0.1-21.5,0.1c0.6-1.3,1.2-2.7,1.6-4.1c8.1-23.1,16.3-46.1,24.3-69.2c1-3,2.4-4.2,5.7-4
	c5.8,0.3,11.6-0.1,17.5,0.2c1.5,0.1,3.8,1.4,4.3,2.7c8.6,23.9,17,48,25.5,72C344.4,75.7,344.5,76.4,344.5,77.1z M306,25.8l-1.3,0.1
	c-2.4,8.2-4.8,16.4-7.3,24.9h15.8C310.7,42.2,308.4,34,306,25.8L306,25.8z"/>
<path class="st0" d="M638.1,77h-24.6V0.4h57.8v18.8h-33.1v12.1h26V50h-26.2L638.1,77z"/>
<path class="st0" d="M569.9,77.1h-24.3V0.3h57.5v19H570v12h26.1v18.6h-26.3V77.1z"/>
<path class="st0" d="M160,0.3h24.5V77H160V0.3z"/>
<path class="st0" d="M251.9,0.3c-1.1,0-2.4,2-3.1,3.3c-3.8,7.2-7.4,14.5-11.7,22.8c-4.3-8.4-7.9-15.7-11.7-22.8
	c-0.7-1.3-2-3.3-3.1-3.3c-8.3-0.3-16.7-0.2-25.9-0.2c9,15.4,17.5,29.7,25.7,44.2c1.6,3,2.5,6.4,2.6,9.8c0.4,7.4,0.1,14.9,0.1,22.8
	h24.7c0-7.9-0.3-15.4,0.1-22.8c0.1-3.4,1-6.8,2.6-9.8c8.2-14.5,16.7-28.8,25.7-44.2C268.5,0.1,260.2,0,251.9,0.3z"/>
</svg>
