<svg xmlns="http://www.w3.org/2000/svg" width="24" height="24" viewBox="0 0 24 24">
  <path id="ico_인스타그램" d="M7.057,23.925a8.868,8.868,0,0,1-2.912-.557,5.907,5.907,0,0,1-2.126-1.386A5.864,5.864,0,0,1,.634,19.862a8.9,8.9,0,0,1-.559-2.914C.015,15.668,0,15.26,0,12S.015,8.334.075,7.055A8.9,8.9,0,0,1,.634,4.141,5.865,5.865,0,0,1,2.019,2.014,5.776,5.776,0,0,1,4.142.633,8.812,8.812,0,0,1,7.054.073C8.334.015,8.741,0,12,0s3.664.015,4.942.07a8.878,8.878,0,0,1,2.914.56,6.149,6.149,0,0,1,3.51,3.5,8.76,8.76,0,0,1,.559,2.915c.06,1.28.073,1.687.073,4.946s-.013,3.668-.073,4.946a8.866,8.866,0,0,1-.559,2.916,6.159,6.159,0,0,1-3.5,3.513,8.859,8.859,0,0,1-2.916.557c-1.279.06-1.689.075-4.944.075S8.34,23.986,7.057,23.925Zm.1-21.692a6.707,6.707,0,0,0-2.231.413,3.773,3.773,0,0,0-1.376.9,3.748,3.748,0,0,0-.9,1.378,6.685,6.685,0,0,0-.414,2.229C2.177,8.416,2.166,8.795,2.166,12s.013,3.584.069,4.848a6.777,6.777,0,0,0,.414,2.228,3.751,3.751,0,0,0,.9,1.378,3.76,3.76,0,0,0,1.376.9,6.58,6.58,0,0,0,2.231.415c1.264.06,1.644.069,4.847.069s3.581-.013,4.847-.069a6.671,6.671,0,0,0,2.226-.415,3.713,3.713,0,0,0,1.38-.9,3.751,3.751,0,0,0,.9-1.378,6.677,6.677,0,0,0,.414-2.228c.058-1.265.068-1.646.068-4.848s-.013-3.582-.068-4.847a6.785,6.785,0,0,0-.414-2.229,3.748,3.748,0,0,0-.9-1.378,3.726,3.726,0,0,0-1.38-.9,6.579,6.579,0,0,0-2.226-.413C15.583,2.173,15.2,2.162,12,2.162S8.419,2.173,7.155,2.233ZM5.841,12A6.16,6.16,0,1,1,12,18.161,6.162,6.162,0,0,1,5.841,12ZM8,12a4,4,0,1,0,4-4A4,4,0,0,0,8,12Zm8.966-6.4A1.441,1.441,0,1,1,18.4,7.034,1.441,1.441,0,0,1,16.965,5.593Z" fill="#aaa"/>
</svg>
