<svg xmlns="http://www.w3.org/2000/svg" width="150" height="25.875" viewBox="0 0 150 25.875">
  <g id="logo_홀딩스" transform="translate(-40 -51.999)">
    <g id="logo_홀딩스-2" data-name="logo_홀딩스" transform="translate(40 52)">
      <path id="o_삼양그린" d="M544.53,4.61A4.611,4.611,0,1,1,539.919,0,4.607,4.607,0,0,1,544.53,4.61" transform="translate(-394.53)" fill="#9cb227"/>
      <path id="o_삼양레드" d="M493.846,4.61A4.613,4.613,0,1,1,489.233,0a4.615,4.615,0,0,1,4.614,4.611" transform="translate(-357.172)" fill="#f05333"/>
      <path id="samyang" d="M98.3,14.707h3.266c.237,1.382,1.488,2.154,3.1,2.154,2.128,0,3.428-1.3,3.428-3.877V11.552a4.133,4.133,0,0,1-3.826,2.153c-4.329,0-6.374-3.083-6.374-6.751,0-3.717,2.073-6.876,6.294-6.876A4.447,4.447,0,0,1,108.1,2.015V.344h3.187V12.776c0,4.828-3.244,6.558-6.748,6.558C101.165,19.334,98.641,17.687,98.3,14.707Zm2.866-7.753c0,2.741,1.194,4.307,3.69,4.307,1.942,0,3.266-1.3,3.266-3.828V6.4c0-2.183-1.194-3.8-3.291-3.8C102.435,2.6,101.165,4.216,101.165,6.954ZM54.382,18.987l2.524-6.03L51.511.344h3.373l3.669,9.211L62.217.344h3.295l-8,18.643ZM0,9.956H3.029c.106,1.143.717,2.149,2.6,2.149,1.7,0,2.441-.582,2.441-1.694,0-1.064-.848-1.674-2.866-2.021C1.651,7.782.214,6.5.214,4.17.214,1.381,2.9,0,5.445,0c2.788,0,5.2,1.19,5.476,4.457H7.943a2.14,2.14,0,0,0-2.5-2.045c-1.355,0-2.177.636-2.177,1.62,0,.957.583,1.515,2.76,1.864,3.084.5,5.208,1.433,5.208,4.247s-2.1,4.406-5.577,4.406C2.124,14.55.108,12.8,0,9.956Zm66.71.4c0-3.161,2.976-4.435,6.85-4.435h1.621V5.175c0-1.832-.8-2.711-2.39-2.711a2.222,2.222,0,0,0-2.469,1.992H67.236c.3-3.1,2.925-4.38,5.711-4.38,2.817,0,5.366,1.219,5.366,5.047v9.107H75.206V12.588a4.371,4.371,0,0,1-3.982,1.861C68.859,14.449,66.71,13.223,66.71,10.354Zm3.107-.186c0,1.119.609,1.915,2.1,1.915A2.98,2.98,0,0,0,75.181,9V7.994H73.64C71.275,7.994,69.817,8.709,69.817,10.169Zm-55.893.186c0-3.161,2.976-4.435,6.854-4.435H22.4V5.175c0-1.832-.8-2.711-2.392-2.711A2.22,2.22,0,0,0,17.54,4.457H14.459c.292-3.1,2.921-4.38,5.709-4.38,2.816,0,5.369,1.219,5.369,5.047v9.107H22.427V12.588a4.381,4.381,0,0,1-3.986,1.861C16.078,14.449,13.924,13.223,13.924,10.354Zm3.109-.186c0,1.119.611,1.915,2.1,1.915A2.981,2.981,0,0,0,22.4,9V7.994H20.857C18.5,7.994,17.033,8.709,17.033,10.169Zm74.473,4.063V5.867c0-2.1-.9-3.055-2.657-3.055A3.255,3.255,0,0,0,85.74,6.374v7.858H82.557V.344H85.74V2.367A4.672,4.672,0,0,1,90.045.132c2.627,0,4.646,1.618,4.646,5.442v8.658Zm-45.247,0V5.919c0-2.044-.795-3.026-2.31-3.026-1.543,0-2.788,1.278-2.788,3.4v7.939H37.972V5.9c0-2.048-.689-3-2.177-3-1.651,0-2.921,1.406-2.921,3.611v7.728H29.685V.344h3.189V2.387A4.38,4.38,0,0,1,36.913.132a3.5,3.5,0,0,1,3.61,2.419A4.843,4.843,0,0,1,44.907.132c2.492,0,4.54,1.539,4.54,5.388v8.712Z" transform="translate(11.781 6.539)" fill="#231f20"/>
      <path id="o_삼양블루" d="M9.226,4.61A4.6,4.6,0,1,1,7.653,1.136,4.612,4.612,0,0,1,9.226,4.61" transform="translate(0 0)" fill="#00a3f1"/>
    </g>
  </g>
</svg>
