<svg xmlns="http://www.w3.org/2000/svg" width="18" height="18" viewBox="0 0 18 18">
  <path id="menu" d="M14.507,16.253A1.746,1.746,0,1,1,16.253,18,1.746,1.746,0,0,1,14.507,16.253Zm-7.254,0A1.746,1.746,0,1,1,9,18,1.746,1.746,0,0,1,7.254,16.253ZM0,16.253A1.746,1.746,0,1,1,1.747,18,1.746,1.746,0,0,1,0,16.253ZM14.507,9a1.746,1.746,0,1,1,1.746,1.746A1.746,1.746,0,0,1,14.507,9ZM7.254,9A1.746,1.746,0,1,1,9,10.746,1.746,1.746,0,0,1,7.254,9ZM0,9a1.746,1.746,0,1,1,1.747,1.746A1.746,1.746,0,0,1,0,9ZM14.507,1.747a1.746,1.746,0,1,1,1.746,1.746A1.746,1.746,0,0,1,14.507,1.747Zm-7.254,0A1.746,1.746,0,1,1,9,3.493,1.746,1.746,0,0,1,7.254,1.747ZM0,1.747A1.746,1.746,0,1,1,1.747,3.493,1.747,1.747,0,0,1,0,1.747Z" fill="#fff"/>
</svg>
