<svg xmlns="http://www.w3.org/2000/svg" width="20.548" height="20.548" viewBox="0 0 20.548 20.548">
  <g id="icon_search" transform="translate(-1328 -494)" fill="none">
    <path d="M1342.606,510.042a9,9,0,1,1,1.437-1.436l4.506,4.505-1.436,1.437Z" stroke="none"/>
    <path d="M 1337.00048828125 510.0001220703125 C 1338.602294921875 510.0001220703125 1340.109375 509.4737243652344 1341.359008789062 508.4777221679688 L 1341.981811523438 507.9812927246094 L 1342.478149414062 507.358642578125 C 1343.473999023438 506.109130859375 1344.00048828125 504.6019592285156 1344.00048828125 503.0001220703125 C 1344.00048828125 499.1403503417969 1340.860229492188 496.0001220703125 1337.00048828125 496.0001220703125 C 1333.140625 496.0001220703125 1330.00048828125 499.1403503417969 1330.00048828125 503.0001220703125 C 1330.00048828125 506.8599243164062 1333.140625 510.0001220703125 1337.00048828125 510.0001220703125 M 1347.111938476562 514.5480346679688 L 1342.605590820312 510.0417175292969 C 1341.067749023438 511.2674560546875 1339.119506835938 512.0001220703125 1337.00048828125 512.0001220703125 C 1332.02978515625 512.0001220703125 1328.00048828125 507.9708251953125 1328.00048828125 503.0001220703125 C 1328.00048828125 498.0293884277344 1332.02978515625 494.0001220703125 1337.00048828125 494.0001220703125 C 1341.97021484375 494.0001220703125 1346.00048828125 498.0293884277344 1346.00048828125 503.0001220703125 C 1346.00048828125 505.1192932128906 1345.267700195312 507.0675659179688 1344.042114257812 508.605224609375 L 1348.54833984375 513.1107177734375 L 1347.111938476562 514.5480346679688 Z" stroke="none" fill="#aaa"/>
  </g>
</svg>
