<svg xmlns="http://www.w3.org/2000/svg" width="25" height="17.499" viewBox="0 0 25 17.499">
  <path id="ico_유튜브" d="M24.479,2.732A3.137,3.137,0,0,0,22.268.521C20.319,0,12.5,0,12.5,0S4.685,0,2.733.521A3.136,3.136,0,0,0,.521,2.732,32.608,32.608,0,0,0,0,8.75a32.608,32.608,0,0,0,.521,6.017,3.136,3.136,0,0,0,2.211,2.211c1.953.521,9.767.521,9.767.521s7.819,0,9.768-.521a3.136,3.136,0,0,0,2.211-2.211A32.622,32.622,0,0,0,25,8.75a32.622,32.622,0,0,0-.521-6.017M10,12.5V5L16.5,8.75Z" fill="#aaa"/>
</svg>
